# xmcd
#
# Track frame offsets: 
#        150
#        19428
#        64582
#        83709
#        103287
#        119639
#        151293
#        167269
#        183324
#        205976
#        219230
#        237382
#        250733
#        270387
#
# Disc length: 3784 seconds
#
# Revision: 0
# Processed by: cddbd v1.5.2PL0 Copyright (c) Steve Scherf et al.
# Submitted via: ExactAudioCopy v0.95b4
#
DISCID=bc0ec60e
DTITLE=Various Artist - Prá Paródia
DYEAR=2005
DGENRE=Country
TTITLE0=Gino e Geno - Lorota
TTITLE1=Popular - Mulher Gorda
TTITLE2=Hilda Martinez - Pimba Pimba
TTITLE3=D.R. - Fom From Fon Fon
TTITLE4=Júlio Domingos - Vá Menina Chupe Lá
TTITLE5=António Alves - Tchic Tchic Tchic
TTITLE6=D.R. - Mulher Madura (Lavou enxugou Tá Nova)
TTITLE7=Artur Gonçalves - Vira da Minha Terra (Vamos à Coina)
TTITLE8=Leonel Nunes - Olha o Pau da Roupa
TTITLE9=D.R. - Se a Casa Cair
TTITLE10=Jaime Henriques - Mulher Ingrata
TTITLE11=D.R. - Quem Tem ... Tem Medo
TTITLE12=Quim Barreiros - Mestre de Culinária
TTITLE13=Juvelino e Teodoro - Tadinha da Minha Secretária
EXTD=
EXTT0=
EXTT1=
EXTT2=
EXTT3=
EXTT4=
EXTT5=
EXTT6=
EXTT7=
EXTT8=
EXTT9=
EXTT10=
EXTT11=
EXTT12=
EXTT13=
PLAYORDER=
